<?xml version="1.0" encoding="UTF-8" standalone="no"?>
<!DOCTYPE svg PUBLIC "-//W3C//DTD SVG 1.1//EN"
 "http://www.w3.org/Graphics/SVG/1.1/DTD/svg11.dtd">
<!-- Generated by graphviz version 11.0.0 (20240519.1550)
 -->
<!-- Pages: 1 -->
<svg width="325pt" height="120pt"
 viewBox="0.00 0.00 325.46 120.24" xmlns="http://www.w3.org/2000/svg" xmlns:xlink="http://www.w3.org/1999/xlink">
<g id="graph0" class="graph" transform="scale(1 1) rotate(0) translate(4 116.24)">
<polygon fill="white" stroke="none" points="-4,4 -4,-116.24 321.46,-116.24 321.46,4 -4,4"/>
<!-- 5570116897895724986 -->
<g id="node1" class="node">
<title>5570116897895724986</title>
<ellipse fill="none" stroke="black" cx="201.85" cy="-57.12" rx="25.62" ry="25.62"/>
<text text-anchor="middle" x="201.85" y="-51.69" font-family="Helvetica,sans-Serif" font-size="14.00">add</text>
</g>
<!-- 4956973779074263647 -->
<g id="node2" class="node">
<title>4956973779074263647</title>
<polygon fill="none" stroke="black" points="317.46,-75.12 263.46,-75.12 263.46,-39.12 317.46,-39.12 317.46,-75.12"/>
</g>
<!-- 5570116897895724986&#45;&gt;4956973779074263647 -->
<g id="edge1" class="edge">
<title>5570116897895724986&#45;&gt;4956973779074263647</title>
<path fill="none" stroke="black" d="M227.9,-57.12C235.35,-57.12 243.69,-57.12 251.76,-57.12"/>
<polygon fill="black" stroke="black" points="251.75,-60.62 261.75,-57.12 251.75,-53.62 251.75,-60.62"/>
</g>
<!-- 5480464771589017346 -->
<g id="node3" class="node">
<title>5480464771589017346</title>
<polygon fill="none" stroke="black" points="140.23,-105.12 86.23,-105.12 86.23,-69.12 140.23,-69.12 140.23,-105.12"/>
</g>
<!-- 5480464771589017346&#45;&gt;5570116897895724986 -->
<g id="edge2" class="edge">
<title>5480464771589017346&#45;&gt;5570116897895724986</title>
<path fill="none" stroke="black" d="M140.69,-77.95C148.78,-75.15 157.81,-72.02 166.36,-69.06"/>
<polygon fill="black" stroke="black" points="167.46,-72.38 175.77,-65.8 165.17,-65.77 167.46,-72.38"/>
</g>
<!-- 3458662850258903467 -->
<g id="node4" class="node">
<title>3458662850258903467</title>
<polygon fill="none" stroke="black" points="140.23,-48.12 86.23,-48.12 86.23,-12.12 140.23,-12.12 140.23,-48.12"/>
</g>
<!-- 3458662850258903467&#45;&gt;5570116897895724986 -->
<g id="edge3" class="edge">
<title>3458662850258903467&#45;&gt;5570116897895724986</title>
<path fill="none" stroke="black" d="M140.69,-38.36C148.72,-40.87 157.66,-43.65 166.14,-46.3"/>
<polygon fill="black" stroke="black" points="164.87,-49.57 175.46,-49.2 166.96,-42.89 164.87,-49.57"/>
</g>
<!-- 6454303838376386575 -->
<g id="node5" class="node">
<title>6454303838376386575</title>
<ellipse fill="none" stroke="black" cx="25.12" cy="-90.12" rx="22.12" ry="22.12"/>
<text text-anchor="middle" x="25.12" y="-84.69" font-family="Helvetica,sans-Serif" font-size="14.00">inc</text>
</g>
<!-- 6454303838376386575&#45;&gt;5480464771589017346 -->
<g id="edge4" class="edge">
<title>6454303838376386575&#45;&gt;5480464771589017346</title>
<path fill="none" stroke="black" d="M47.4,-89.37C55.6,-89.09 65.22,-88.75 74.51,-88.43"/>
<polygon fill="black" stroke="black" points="74.57,-91.93 84.45,-88.08 74.33,-84.93 74.57,-91.93"/>
</g>
<!-- 6688062739822498898 -->
<g id="node6" class="node">
<title>6688062739822498898</title>
<ellipse fill="none" stroke="black" cx="25.12" cy="-25.12" rx="25.12" ry="25.12"/>
<text text-anchor="middle" x="25.12" y="-19.69" font-family="Helvetica,sans-Serif" font-size="14.00">dec</text>
</g>
<!-- 6688062739822498898&#45;&gt;3458662850258903467 -->
<g id="edge5" class="edge">
<title>6688062739822498898&#45;&gt;3458662850258903467</title>
<path fill="none" stroke="black" d="M50.56,-26.54C58.07,-26.97 66.5,-27.46 74.67,-27.94"/>
<polygon fill="black" stroke="black" points="74.22,-31.41 84.4,-28.5 74.62,-24.43 74.22,-31.41"/>
</g>
</g>
</svg>
