<?xml version="1.0" encoding="UTF-8" standalone="no"?>
<!DOCTYPE svg PUBLIC "-//W3C//DTD SVG 1.1//EN"
 "http://www.w3.org/Graphics/SVG/1.1/DTD/svg11.dtd">
<!-- Generated by graphviz version 11.0.0 (20240519.1550)
 -->
<!-- Pages: 1 -->
<svg width="314pt" height="214pt"
 viewBox="0.00 0.00 313.50 214.21" xmlns="http://www.w3.org/2000/svg" xmlns:xlink="http://www.w3.org/1999/xlink">
<g id="graph0" class="graph" transform="scale(1 1) rotate(0) translate(4 210.21)">
<polygon fill="white" stroke="none" points="-4,4 -4,-210.21 309.5,-210.21 309.5,4 -4,4"/>
<!-- &#45;4166379904870593277 -->
<g id="node1" class="node">
<title>&#45;4166379904870593277</title>
<polygon fill="none" stroke="black" points="179.25,-36 125.25,-36 125.25,0 179.25,0 179.25,-36"/>
</g>
<!-- &#45;5315431312254669733 -->
<g id="node2" class="node">
<title>&#45;5315431312254669733</title>
<ellipse fill="none" stroke="black" cx="32.25" cy="-103.1" rx="31.1" ry="31.1"/>
<text text-anchor="middle" x="32.25" y="-97.68" font-family="Helvetica,sans-Serif" font-size="14.00">array</text>
</g>
<!-- &#45;4166379904870593277&#45;&gt;&#45;5315431312254669733 -->
<g id="edge2" class="edge">
<title>&#45;4166379904870593277&#45;&gt;&#45;5315431312254669733</title>
<path fill="none" stroke="black" d="M125.31,-36.27C109.67,-46.44 89.67,-59.69 72.25,-72 70.01,-73.58 67.72,-75.23 65.42,-76.9"/>
<polygon fill="black" stroke="black" points="63.8,-73.75 57.83,-82.5 67.96,-79.38 63.8,-73.75"/>
</g>
<!-- &#45;5474469522800145253 -->
<g id="node4" class="node">
<title>&#45;5474469522800145253</title>
<ellipse fill="none" stroke="black" cx="112.25" cy="-103.1" rx="31.1" ry="31.1"/>
<text text-anchor="middle" x="112.25" y="-97.68" font-family="Helvetica,sans-Serif" font-size="14.00">array</text>
</g>
<!-- &#45;4166379904870593277&#45;&gt;&#45;5474469522800145253 -->
<g id="edge4" class="edge">
<title>&#45;4166379904870593277&#45;&gt;&#45;5474469522800145253</title>
<path fill="none" stroke="black" d="M143.96,-36.22C139.99,-44.48 135.06,-54.71 130.29,-64.63"/>
<polygon fill="black" stroke="black" points="127.25,-62.87 126.07,-73.4 133.56,-65.91 127.25,-62.87"/>
</g>
<!-- &#45;2661464222870176073 -->
<g id="node6" class="node">
<title>&#45;2661464222870176073</title>
<ellipse fill="none" stroke="black" cx="192.25" cy="-103.1" rx="31.1" ry="31.1"/>
<text text-anchor="middle" x="192.25" y="-97.68" font-family="Helvetica,sans-Serif" font-size="14.00">array</text>
</g>
<!-- &#45;4166379904870593277&#45;&gt;&#45;2661464222870176073 -->
<g id="edge6" class="edge">
<title>&#45;4166379904870593277&#45;&gt;&#45;2661464222870176073</title>
<path fill="none" stroke="black" d="M160.54,-36.22C164.51,-44.48 169.44,-54.71 174.21,-64.63"/>
<polygon fill="black" stroke="black" points="170.94,-65.91 178.43,-73.4 177.25,-62.87 170.94,-65.91"/>
</g>
<!-- 3974419163171766548 -->
<g id="node8" class="node">
<title>3974419163171766548</title>
<ellipse fill="none" stroke="black" cx="273.25" cy="-103.1" rx="31.1" ry="31.1"/>
<text text-anchor="middle" x="273.25" y="-97.68" font-family="Helvetica,sans-Serif" font-size="14.00">array</text>
</g>
<!-- &#45;4166379904870593277&#45;&gt;3974419163171766548 -->
<g id="edge8" class="edge">
<title>&#45;4166379904870593277&#45;&gt;3974419163171766548</title>
<path fill="none" stroke="black" d="M179.13,-36.35C194.76,-46.55 214.76,-59.8 232.25,-72 234.59,-73.64 237,-75.34 239.42,-77.07"/>
<polygon fill="black" stroke="black" points="237.29,-79.85 247.45,-82.87 241.4,-74.18 237.29,-79.85"/>
</g>
<!-- 2677363882277212207 -->
<g id="node3" class="node">
<title>2677363882277212207</title>
<polygon fill="none" stroke="black" points="62.5,-206.21 0,-206.21 0,-170.21 62.5,-170.21 62.5,-206.21"/>
<text text-anchor="middle" x="31.25" y="-182.78" font-family="Helvetica,sans-Serif" font-size="14.00">(0, 0, 0)</text>
</g>
<!-- &#45;5315431312254669733&#45;&gt;2677363882277212207 -->
<g id="edge1" class="edge">
<title>&#45;5315431312254669733&#45;&gt;2677363882277212207</title>
<path fill="none" stroke="black" d="M31.88,-134.58C31.79,-142.36 31.69,-150.7 31.6,-158.4"/>
<polygon fill="black" stroke="black" points="28.1,-158.23 31.48,-168.27 35.1,-158.32 28.1,-158.23"/>
</g>
<!-- &#45;2215710146695484159 -->
<g id="node5" class="node">
<title>&#45;2215710146695484159</title>
<polygon fill="none" stroke="black" points="143.5,-206.21 81,-206.21 81,-170.21 143.5,-170.21 143.5,-206.21"/>
<text text-anchor="middle" x="112.25" y="-182.78" font-family="Helvetica,sans-Serif" font-size="14.00">(0, 0, 1)</text>
</g>
<!-- &#45;5474469522800145253&#45;&gt;&#45;2215710146695484159 -->
<g id="edge3" class="edge">
<title>&#45;5474469522800145253&#45;&gt;&#45;2215710146695484159</title>
<path fill="none" stroke="black" d="M112.25,-134.58C112.25,-142.36 112.25,-150.7 112.25,-158.4"/>
<polygon fill="black" stroke="black" points="108.75,-158.27 112.25,-168.27 115.75,-158.27 108.75,-158.27"/>
</g>
<!-- &#45;5919231539467951357 -->
<g id="node7" class="node">
<title>&#45;5919231539467951357</title>
<polygon fill="none" stroke="black" points="224.5,-206.21 162,-206.21 162,-170.21 224.5,-170.21 224.5,-206.21"/>
<text text-anchor="middle" x="193.25" y="-182.78" font-family="Helvetica,sans-Serif" font-size="14.00">(0, 1, 0)</text>
</g>
<!-- &#45;2661464222870176073&#45;&gt;&#45;5919231539467951357 -->
<g id="edge5" class="edge">
<title>&#45;2661464222870176073&#45;&gt;&#45;5919231539467951357</title>
<path fill="none" stroke="black" d="M192.62,-134.58C192.71,-142.36 192.81,-150.7 192.9,-158.4"/>
<polygon fill="black" stroke="black" points="189.4,-158.32 193.02,-168.27 196.4,-158.23 189.4,-158.32"/>
</g>
<!-- &#45;3809948166350321060 -->
<g id="node9" class="node">
<title>&#45;3809948166350321060</title>
<polygon fill="none" stroke="black" points="305.5,-206.21 243,-206.21 243,-170.21 305.5,-170.21 305.5,-206.21"/>
<text text-anchor="middle" x="274.25" y="-182.78" font-family="Helvetica,sans-Serif" font-size="14.00">(0, 1, 1)</text>
</g>
<!-- 3974419163171766548&#45;&gt;&#45;3809948166350321060 -->
<g id="edge7" class="edge">
<title>3974419163171766548&#45;&gt;&#45;3809948166350321060</title>
<path fill="none" stroke="black" d="M273.62,-134.58C273.71,-142.36 273.81,-150.7 273.9,-158.4"/>
<polygon fill="black" stroke="black" points="270.4,-158.32 274.02,-168.27 277.4,-158.23 270.4,-158.32"/>
</g>
</g>
</svg>
