<?xml version="1.0" encoding="UTF-8" standalone="no"?>
<!DOCTYPE svg PUBLIC "-//W3C//DTD SVG 1.1//EN"
 "http://www.w3.org/Graphics/SVG/1.1/DTD/svg11.dtd">
<!-- Generated by graphviz version 11.0.0 (20240519.1550)
 -->
<!-- Pages: 1 -->
<svg width="450pt" height="177pt"
 viewBox="0.00 0.00 450.14 177.14" xmlns="http://www.w3.org/2000/svg" xmlns:xlink="http://www.w3.org/1999/xlink">
<g id="graph0" class="graph" transform="scale(1 1) rotate(0) translate(4 173.14)">
<polygon fill="white" stroke="none" points="-4,4 -4,-173.14 446.14,-173.14 446.14,4 -4,4"/>
<!-- &#45;6839426416340429195 -->
<g id="node1" class="node">
<title>&#45;6839426416340429195</title>
<ellipse fill="none" stroke="black" cx="48.57" cy="-48.57" rx="48.57" ry="48.57"/>
<text text-anchor="middle" x="48.57" y="-43.14" font-family="Helvetica,sans-Serif" font-size="14.00">ones_like</text>
</g>
<!-- 3854755442928085133 -->
<g id="node2" class="node">
<title>3854755442928085133</title>
<polygon fill="none" stroke="black" points="75.57,-169.14 21.57,-169.14 21.57,-133.14 75.57,-133.14 75.57,-169.14"/>
<text text-anchor="middle" x="48.57" y="-145.71" font-family="Helvetica,sans-Serif" font-size="14.00">(0, 0)</text>
</g>
<!-- &#45;6839426416340429195&#45;&gt;3854755442928085133 -->
<g id="edge1" class="edge">
<title>&#45;6839426416340429195&#45;&gt;3854755442928085133</title>
<path fill="none" stroke="black" d="M48.57,-97.5C48.57,-105.76 48.57,-114.12 48.57,-121.66"/>
<polygon fill="black" stroke="black" points="45.07,-121.55 48.57,-131.55 52.07,-121.55 45.07,-121.55"/>
</g>
<!-- 5975870992039086082 -->
<g id="node3" class="node">
<title>5975870992039086082</title>
<ellipse fill="none" stroke="black" cx="163.57" cy="-48.57" rx="48.57" ry="48.57"/>
<text text-anchor="middle" x="163.57" y="-43.14" font-family="Helvetica,sans-Serif" font-size="14.00">ones_like</text>
</g>
<!-- &#45;8084347874679468058 -->
<g id="node4" class="node">
<title>&#45;8084347874679468058</title>
<polygon fill="none" stroke="black" points="190.57,-169.14 136.57,-169.14 136.57,-133.14 190.57,-133.14 190.57,-169.14"/>
<text text-anchor="middle" x="163.57" y="-145.71" font-family="Helvetica,sans-Serif" font-size="14.00">(0, 1)</text>
</g>
<!-- 5975870992039086082&#45;&gt;&#45;8084347874679468058 -->
<g id="edge2" class="edge">
<title>5975870992039086082&#45;&gt;&#45;8084347874679468058</title>
<path fill="none" stroke="black" d="M163.57,-97.5C163.57,-105.76 163.57,-114.12 163.57,-121.66"/>
<polygon fill="black" stroke="black" points="160.07,-121.55 163.57,-131.55 167.07,-121.55 160.07,-121.55"/>
</g>
<!-- 5816832781493610562 -->
<g id="node5" class="node">
<title>5816832781493610562</title>
<ellipse fill="none" stroke="black" cx="278.57" cy="-48.57" rx="48.57" ry="48.57"/>
<text text-anchor="middle" x="278.57" y="-43.14" font-family="Helvetica,sans-Serif" font-size="14.00">ones_like</text>
</g>
<!-- 5469322170057387192 -->
<g id="node6" class="node">
<title>5469322170057387192</title>
<polygon fill="none" stroke="black" points="305.57,-169.14 251.57,-169.14 251.57,-133.14 305.57,-133.14 305.57,-169.14"/>
<text text-anchor="middle" x="278.57" y="-145.71" font-family="Helvetica,sans-Serif" font-size="14.00">(0, 2)</text>
</g>
<!-- 5816832781493610562&#45;&gt;5469322170057387192 -->
<g id="edge3" class="edge">
<title>5816832781493610562&#45;&gt;5469322170057387192</title>
<path fill="none" stroke="black" d="M278.57,-97.5C278.57,-105.76 278.57,-114.12 278.57,-121.66"/>
<polygon fill="black" stroke="black" points="275.07,-121.55 278.57,-131.55 282.07,-121.55 275.07,-121.55"/>
</g>
<!-- &#45;8641699811824487130 -->
<g id="node7" class="node">
<title>&#45;8641699811824487130</title>
<ellipse fill="none" stroke="black" cx="393.57" cy="-48.57" rx="48.57" ry="48.57"/>
<text text-anchor="middle" x="393.57" y="-43.14" font-family="Helvetica,sans-Serif" font-size="14.00">ones_like</text>
</g>
<!-- 7578605543175017489 -->
<g id="node8" class="node">
<title>7578605543175017489</title>
<polygon fill="none" stroke="black" points="420.57,-169.14 366.57,-169.14 366.57,-133.14 420.57,-133.14 420.57,-169.14"/>
<text text-anchor="middle" x="393.57" y="-145.71" font-family="Helvetica,sans-Serif" font-size="14.00">(0, 3)</text>
</g>
<!-- &#45;8641699811824487130&#45;&gt;7578605543175017489 -->
<g id="edge4" class="edge">
<title>&#45;8641699811824487130&#45;&gt;7578605543175017489</title>
<path fill="none" stroke="black" d="M393.57,-97.5C393.57,-105.76 393.57,-114.12 393.57,-121.66"/>
<polygon fill="black" stroke="black" points="390.07,-121.55 393.57,-131.55 397.07,-121.55 390.07,-121.55"/>
</g>
</g>
</svg>
